<?xml version="1.0" encoding="utf-8"?>
<!-- Generator: Adobe Illustrator 16.0.0, SVG Export Plug-In . SVG Version: 6.00 Build 0)  -->
<!DOCTYPE svg PUBLIC "-//W3C//DTD SVG 1.1//EN" "http://www.w3.org/Graphics/SVG/1.1/DTD/svg11.dtd" [
	<!ENTITY ns_extend "http://ns.adobe.com/Extensibility/1.0/">
	<!ENTITY ns_ai "http://ns.adobe.com/AdobeIllustrator/10.0/">
	<!ENTITY ns_graphs "http://ns.adobe.com/Graphs/1.0/">
	<!ENTITY ns_vars "http://ns.adobe.com/Variables/1.0/">
	<!ENTITY ns_imrep "http://ns.adobe.com/ImageReplacement/1.0/">
	<!ENTITY ns_sfw "http://ns.adobe.com/SaveForWeb/1.0/">
	<!ENTITY ns_custom "http://ns.adobe.com/GenericCustomNamespace/1.0/">
	<!ENTITY ns_adobe_xpath "http://ns.adobe.com/XPath/1.0/">
]>
<svg version="1.1" id="Layer_1" xmlns:x="&ns_extend;" xmlns:i="&ns_ai;" xmlns:graph="&ns_graphs;"
	 xmlns="http://www.w3.org/2000/svg" xmlns:xlink="http://www.w3.org/1999/xlink" x="0px" y="0px" width="493.526px"
	 height="482.556px" viewBox="57.161 76.928 493.526 482.556" enable-background="new 57.161 76.928 493.526 482.556"
	 xml:space="preserve">
<metadata>
	<sfw  xmlns="&ns_sfw;">
		<slices></slices>
		<sliceSourceBounds  height="482.556" width="493.526" y="233.016" x="56.661" bottomLeftOrigin="true"></sliceSourceBounds>
	</sfw>
</metadata>
<path fill="#727272" d="M545.543,231.476c-17.693-78.122-69.138-129.817-125.105-154.548
	c69.591,61.31,133.698,179.958,53.942,288.062c-33.085,44.866-99.248,62.595-126.966,50.086c0,0,42.853-9.101,69.505-32.406
	c51.83-49.064,69.149-128.104,27.662-199.958c-5.93-10.27-12.84-19.621-20.545-27.999c-0.11-0.128-0.202-0.257-0.312-0.379
	c-29.156-34.78-69.199-55.539-112.223-61.91c-55.857-10.496-127.884,3.152-181.825,53.036
	c-58.807,54.395-77.853,124.793-71.28,185.638c18.293-90.931,88.997-205.767,222.493-190.767
	c55.404,6.236,103.826,54.664,106.861,84.927c0,0-32.295-50.68-112.394-50.68c-1.469,0.025-4.572,0.147-4.658,0.147
	c-0.336,0.019-0.679,0.037-1.022,0.062c-52.081,2.038-102.712,29.278-133.6,82.779c-5.93,10.264-10.569,20.924-13.978,31.793
	c-0.061,0.147-0.116,0.306-0.171,0.453c-15.539,42.644-13.495,87.7,2.491,128.14c18.844,53.63,66.684,109.188,136.85,130.95
	c76.512,23.733,147.002,5.019,196.403-31.084c-87.901,29.603-222.701,25.802-276.458-97.302
	c-22.308-51.102-4.584-117.253,20.116-135.013c0,0-27.748,53.305,12.313,122.669c27.43,45.802,77.216,77.467,140.448,77.467
	c3.048,0,27.467-1.903,36.268-3.874c0.165-0.019,0.336-0.049,0.489-0.067c44.694-7.87,82.693-32.167,109.72-66.23
	C537.593,372.346,561.785,303.129,545.543,231.476z"/>
</svg>
