<svg xmlns:dc="http://purl.org/dc/elements/1.1/" xmlns:cc="http://creativecommons.org/ns#" xmlns:rdf="http://www.w3.org/1999/02/22-rdf-syntax-ns#" xmlns:svg="http://www.w3.org/2000/svg" xmlns="http://www.w3.org/2000/svg" xmlns:sodipodi="http://sodipodi.sourceforge.net/DTD/sodipodi-0.dtd" xmlns:inkscape="http://www.inkscape.org/namespaces/inkscape" version="1.1" x="0px" y="0px" viewBox="0 0 100 125"><g transform="translate(-664.5,-949.25)" style="fill:#AE02FF;" display="inline"><g transform="translate(-0.16835,0.78548308)"><path transform="translate(664.5,949.25)" d="M 50,24.75 C 36.054811,24.750001 24.750001,36.054811 24.75,50 24.750001,63.945189 36.054811,75.249999 50,75.25 63.945189,75.249999 75.249999,63.945189 75.25,50 75.249999,36.054811 63.945189,24.750001 50,24.75 Z m 0,17.75 c 4.142135,10e-7 7.499999,3.357865 7.5,7.5 -10e-7,4.142135 -3.357865,7.499999 -7.5,7.5 -4.142135,-10e-7 -7.499999,-3.357865 -7.5,-7.5 10e-7,-4.142135 3.357865,-7.499999 7.5,-7.5 z" style="fill:#AE02FF;" fill="#000000" fill-opacity="1" stroke="none"/></g><path style="fill:#AE02FF;" d="m 705.51265,975.52411 c -2.88694,0.28315 -12.33329,1.97193 -19.47203,11.1521 -3.55431,4.57072 -6.87007,12.12614 -7.08461,19.88739 -0.10727,3.8806 0.22126,8.2363 1.88781,13.1434 0.83327,2.4536 2.81865,6.1719 4.99719,9.1537 1.08927,1.4909 2.13308,3.079 3.30956,4.3713 1.17647,1.2924 2.07935,2.414 3.44926,3.9097 -2.46273,-3.5062 -5.22214,-7.1922 -7.09543,-10.9799 -1.8733,-3.7877 -2.85955,-7.8517 -3.29189,-11.6103 -0.43234,-3.7586 0.13118,-7.6538 1.44578,-10.9714 1.31462,-3.3176 3.55711,-6.01337 6.1292,-8.3454 15.01146,-2.20598 24.23225,-22.0679 15.72516,-19.71059 z" fill="#000000" fill-opacity="1" fill-rule="evenodd" stroke="none"/><path style="fill:#AE02FF;" d="m 688.04757,997.35437 c -1.01566,2.71723 -3.65439,11.94333 1.44957,22.39263 2.54131,5.2026 7.86788,11.5039 14.74345,15.1107 3.43781,1.8032 7.49397,3.4241 12.63389,4.0862 2.57001,0.3309 6.78258,0.1837 10.41879,-0.461 3.63614,-0.6449 6.74271,-1.7855 10.36517,-2.9169 -4.08117,0.8292 -8.71139,2.0158 -12.93698,2.032 -4.22568,0.016 -8.30921,-0.886 -11.8748,-2.1512 -3.56562,-1.2649 -6.81581,-3.4845 -9.2169,-6.1246 -2.40109,-2.6399 -3.83553,-5.8396 -4.79843,-9.1753 4.62238,-14.4515 -9.15856,-31.46931 -10.78376,-22.79253 z" display="inline" fill="#000000" fill-opacity="1" fill-rule="evenodd" stroke="none"/><path style="fill:#AE02FF;" d="m 698.92596,1020.0546 c 1.7129,2.3412 7.97335,9.6136 19.50874,11.0877 5.7434,0.734 13.93476,-0.2562 20.72523,-4.0209 3.39507,-1.8824 6.97744,-4.3817 10.35382,-8.3132 1.68811,-1.966 3.84389,-5.5823 5.3373,-8.9598 1.5026,-3.3982 2.44209,-6.6248 3.30669,-10.16322 -1.62242,3.78312 -3.15136,8.28632 -5.45873,11.82632 -2.30759,3.5401 -5.30423,6.457 -8.31991,8.7417 -3.01545,2.285 -6.65544,3.7819 -10.18046,4.3383 -3.52485,0.5565 -6.98658,0 -10.30295,-1.0297 -9.53767,-11.8002 -31.32792,-9.6311 -24.96973,-3.5072 z" display="inline" fill="#000000" fill-opacity="1" fill-rule="evenodd" stroke="none"/><path style="fill:#AE02FF;" d="m 724.05746,1023.3922 c 2.88398,-0.3128 12.31229,-2.0983 19.3566,-11.3512 3.50735,-4.6069 6.7455,-12.19603 6.88041,-19.95907 0.0673,-3.88141 -0.30595,-8.23348 -2.02254,-13.12326 -0.85854,-2.44496 -2.88178,-6.14273 -5.09073,-9.10212 -2.20905,-2.95921 -4.55674,-5.11759 -7.29457,-7.88011 2.51452,3.3271 5.74679,6.80714 7.65884,10.57538 1.91199,3.76846 2.93978,7.82208 3.41055,11.57608 0.47114,3.75395 -0.0525,7.65473 -1.33316,10.98567 -1.28048,3.3309 -3.49329,6.05063 -6.04322,8.40783 -14.98807,2.3598 -24.00473,22.3152 -15.52218,19.8708 z" display="inline" fill="#000000" fill-opacity="1" fill-rule="evenodd" stroke="none"/><path style="fill:#AE02FF;" d="m 739.07365,1005.5336 c 1.37867,-2.5524 5.25765,-11.32936 1.6348,-22.37998 -1.80369,-5.50199 -6.21586,-12.47426 -12.53192,-16.98984 -3.15802,-2.25759 -6.95358,-4.41942 -11.95408,-5.78016 -2.50044,-0.6802 -6.69335,-1.11212 -10.3836,-0.97216 -3.69014,0.14009 -6.88291,0.85193 -10.58883,1.76192 4.2768,-0.41182 8.82713,-1.09615 13.01498,-0.5327 4.18799,0.56364 8.10915,2.01717 11.46754,3.75939 3.35856,1.74188 6.27363,4.38625 8.28993,7.33067 2.0164,2.94426 3.0005,6.30951 3.49485,9.74668 -6.56046,13.68107 4.75651,32.42808 7.55633,24.05618 z" display="inline" fill="#000000" fill-opacity="1" fill-rule="evenodd" stroke="none"/><path style="fill:#AE02FF;" d="m 730.9191,980.76031 c -1.6446,-2.38972 -7.69233,-9.83992 -19.18047,-11.64659 -5.71977,-0.89961 -13.93637,-0.1464 -20.83275,3.42054 -3.448,1.78355 -7.10107,4.17833 -10.5896,8.01065 -1.74422,1.91641 -4.1266,5.45262 -5.68229,8.80185 -1.68611,3.64925 -3.1541,7.12926 -3.79173,10.51657 1.77551,-4.11672 3.67063,-8.64495 6.07929,-12.11683 2.40889,-3.47191 5.48856,-6.30104 8.56897,-8.49767 3.08018,-2.19694 6.7619,-3.58806 10.30149,-4.04238 3.53948,-0.45448 6.98371,0.2018 10.26893,1.32691 9.19287,12.07073 31.03673,10.532 24.85816,4.227 z" display="inline" fill="#000000" fill-opacity="1" fill-rule="evenodd" stroke="none"/></g></svg>