<?xml version="1.0" encoding="utf-8"?>
<!-- Generator: Adobe Illustrator 16.0.0, SVG Export Plug-In . SVG Version: 6.00 Build 0)  -->
<!DOCTYPE svg PUBLIC "-//W3C//DTD SVG 1.1//EN" "http://www.w3.org/Graphics/SVG/1.1/DTD/svg11.dtd" [
	<!ENTITY ns_extend "http://ns.adobe.com/Extensibility/1.0/">
	<!ENTITY ns_ai "http://ns.adobe.com/AdobeIllustrator/10.0/">
	<!ENTITY ns_graphs "http://ns.adobe.com/Graphs/1.0/">
	<!ENTITY ns_vars "http://ns.adobe.com/Variables/1.0/">
	<!ENTITY ns_imrep "http://ns.adobe.com/ImageReplacement/1.0/">
	<!ENTITY ns_sfw "http://ns.adobe.com/SaveForWeb/1.0/">
	<!ENTITY ns_custom "http://ns.adobe.com/GenericCustomNamespace/1.0/">
	<!ENTITY ns_adobe_xpath "http://ns.adobe.com/XPath/1.0/">
]>
<svg version="1.1"
	 id="Layer_1" xmlns:x="&ns_extend;" xmlns:i="&ns_ai;" xmlns:graph="&ns_graphs;" xmlns:svg="http://www.w3.org/2000/svg" xmlns:sodipodi="http://sodipodi.sourceforge.net/DTD/sodipodi-0.dtd" xmlns:inkscape="http://www.inkscape.org/namespaces/inkscape" xmlns:rdf="http://www.w3.org/1999/02/22-rdf-syntax-ns#" xmlns:cc="http://creativecommons.org/ns#" xmlns:dc="http://purl.org/dc/elements/1.1/"
	 xmlns="http://www.w3.org/2000/svg" xmlns:xlink="http://www.w3.org/1999/xlink" x="0px" y="0px" width="559px" height="532px"
	 viewBox="24.5 56.5 559 532" enable-background="new 24.5 56.5 559 532" xml:space="preserve">
<metadata>
	<sfw  xmlns="&ns_sfw;">
		<slices></slices>
		<sliceSourceBounds  height="487.946" width="534.371" y="229.027" x="38.314" bottomLeftOrigin="true"></sliceSourceBounds>
	</sfw>
</metadata>
<g transform="translate(-664.5,-949.25)">
	<g transform="translate(-0.16835,0.78548308)">
		<path fill="#AE02FF" d="M969.638,1118.242c-85.345,0-154.53,69.185-154.53,154.53c0,85.344,69.185,154.53,154.53,154.53
			s154.53-69.186,154.53-154.53C1124.168,1187.427,1054.983,1118.242,969.638,1118.242z M969.638,1226.872
			c25.35,0,45.9,20.55,45.9,45.9s-20.551,45.9-45.9,45.9c-25.35,0-45.9-20.55-45.9-45.9S944.288,1226.872,969.638,1226.872z"/>
	</g>
	<path fill="#AE02FF" d="M915.497,1123.548c-17.668,1.733-75.479,12.068-119.169,68.251c-21.752,27.973-42.045,74.212-43.357,121.71
		c-0.657,23.75,1.354,50.407,11.554,80.438c5.1,15.016,17.25,37.771,30.582,56.021c6.667,9.124,13.055,18.843,20.255,26.753
		c7.2,7.908,12.726,14.773,21.109,23.927c-15.071-21.458-31.959-44.017-43.424-67.196c-11.465-23.182-17.501-48.053-20.146-71.055
		c-2.646-23.003,0.803-46.842,8.849-67.146s21.77-36.802,37.511-51.074C911.13,1230.677,967.561,1109.122,915.497,1123.548
		L915.497,1123.548z"/>
	<path fill="#AE02FF" d="M808.611,1257.149c-6.217,16.629-22.365,73.093,8.871,137.042c15.553,31.84,48.151,70.404,90.23,92.478
		c21.039,11.036,45.862,20.956,77.319,25.008c15.729,2.024,41.509,1.124,63.763-2.821c22.253-3.947,41.266-10.928,63.435-17.852
		c-24.977,5.074-53.313,12.336-79.174,12.436c-25.861,0.098-50.853-5.422-72.674-13.166c-21.822-7.74-41.713-21.324-56.408-37.482
		c-14.694-16.156-23.473-35.738-29.366-56.152C902.896,1308.195,818.558,1204.046,808.611,1257.149L808.611,1257.149z"/>
	<path fill="#AE02FF" d="M875.187,1396.074c10.483,14.328,48.797,58.836,119.394,67.857c35.149,4.492,85.281-1.568,126.839-24.607
		c20.777-11.521,42.701-26.816,63.365-50.877c10.331-12.032,23.524-34.164,32.664-54.834c9.196-20.797,14.945-40.544,20.237-62.199
		c-9.93,23.153-19.287,50.712-33.408,72.377c-14.122,21.666-32.462,39.517-50.917,53.5s-40.731,23.145-62.305,26.549
		c-21.572,3.406-42.758,0-63.055-6.301C969.631,1345.322,836.274,1358.596,875.187,1396.074L875.187,1396.074z"/>
	<path fill="#AE02FF" d="M1028.991,1416.5c17.65-1.914,75.352-12.842,118.463-69.469c21.465-28.194,41.282-74.64,42.108-122.149
		c0.412-23.754-1.873-50.389-12.378-80.314c-5.254-14.963-17.637-37.593-31.155-55.705c-13.52-18.11-27.888-31.32-44.643-48.227
		c15.389,20.362,35.17,41.66,46.871,64.722c11.702,23.063,17.992,47.871,20.873,70.845c2.883,22.974-0.321,46.847-8.159,67.232
		c-7.836,20.385-21.379,37.03-36.984,51.456C1032.26,1309.333,977.079,1431.461,1028.991,1416.5L1028.991,1416.5z"/>
	<path fill="#AE02FF" d="M1120.891,1307.206c8.438-15.621,32.177-69.335,10.005-136.966
		c-11.038-33.672-38.041-76.342-76.695-103.978c-19.327-13.816-42.556-27.047-73.159-35.375c-15.302-4.163-40.963-6.806-63.547-5.95
		c-22.584,0.857-42.124,5.214-64.804,10.783c26.174-2.521,54.022-6.708,79.651-3.26c25.631,3.45,49.628,12.345,70.182,23.007
		c20.554,10.661,38.395,26.844,50.734,44.864c12.34,18.019,18.362,38.614,21.389,59.65
		C1034.496,1243.71,1103.756,1358.441,1120.891,1307.206L1120.891,1307.206z"/>
	<path fill="#AE02FF" d="M1070.985,1155.593c-10.065-14.625-47.077-60.22-117.385-71.277c-35.005-5.505-85.291-0.896-127.497,20.934
		c-21.102,10.915-43.458,25.571-64.808,49.025c-10.675,11.728-25.255,33.37-34.776,53.867
		c-10.318,22.333-19.303,43.631-23.205,64.361c10.866-25.194,22.464-52.907,37.205-74.155c14.742-21.248,33.59-38.563,52.442-52.006
		c18.851-13.445,41.383-21.959,63.045-24.739c21.662-2.781,42.74,1.235,62.846,8.121
		C975.113,1203.597,1108.798,1194.18,1070.985,1155.593L1070.985,1155.593z"/>
</g>
</svg>
