<?xml version="1.0" encoding="utf-8"?>
<!-- Generator: Adobe Illustrator 16.0.0, SVG Export Plug-In . SVG Version: 6.00 Build 0)  -->
<!DOCTYPE svg PUBLIC "-//W3C//DTD SVG 1.1//EN" "http://www.w3.org/Graphics/SVG/1.1/DTD/svg11.dtd" [
	<!ENTITY ns_extend "http://ns.adobe.com/Extensibility/1.0/">
	<!ENTITY ns_ai "http://ns.adobe.com/AdobeIllustrator/10.0/">
	<!ENTITY ns_graphs "http://ns.adobe.com/Graphs/1.0/">
	<!ENTITY ns_vars "http://ns.adobe.com/Variables/1.0/">
	<!ENTITY ns_imrep "http://ns.adobe.com/ImageReplacement/1.0/">
	<!ENTITY ns_sfw "http://ns.adobe.com/SaveForWeb/1.0/">
	<!ENTITY ns_custom "http://ns.adobe.com/GenericCustomNamespace/1.0/">
	<!ENTITY ns_adobe_xpath "http://ns.adobe.com/XPath/1.0/">
]>
<svg version="1.1" id="Layer_1" xmlns:x="&ns_extend;" xmlns:i="&ns_ai;" xmlns:graph="&ns_graphs;"
	 xmlns="http://www.w3.org/2000/svg" xmlns:xlink="http://www.w3.org/1999/xlink" x="0px" y="0px" width="612px" height="618px"
	 viewBox="0 0 612 618" enable-background="new 0 0 612 618" xml:space="preserve">
<metadata>
	<sfw  xmlns="&ns_sfw;">
		<slices></slices>
		<sliceSourceBounds  height="567.976" width="566.39" x="21.13" y="102.339" bottomLeftOrigin="true"></sliceSourceBounds>
	</sfw>
</metadata>
<path fill="#0091D1" stroke="#231F20" stroke-miterlimit="10" d="M587.52,386.82c0-67.32-12.238-128.521-55.078-183.601
	c-64.427-87.853-184.887-125.203-280.951-79.976C312.609,74.768,391.882,80.894,459,105.3
	c-151.421-78.324-285.008,30.466-343.779,166.721c0.123-3.445,0.343-6.903,0.79-10.386c0,0,4.07-29.56,19.027-72.014
	C195.84,56.34,385.56,25.74,503.144,103.409c53.085,42.674,62.505,42.993,62.505,42.993l-86.551-86.555
	c0,0-2.662,0.569-13.335-1.065C440.64,56.34,416.16,37.98,391.68,37.98c-48.96-6.12-97.92,0-140.76,18.36
	C143.808,97.142,70.796,218.704,95.472,328.932c-1.328,5.012-2.558,10.03-3.672,15.049C67.32,319.5,73.44,282.78,70.974,251.47
	c5.557-43.771,14.731-73.74,14.731-73.74C5.569,338.833,135.197,471.196,283.393,510.426c-33.262,2.559-66.53-8.477-99.792-19.564
	C18.36,423.54,0,190.98,120.429,76.628c9.535-12.356,12.473-16.781,12.473-16.781s-22.57,22.387-44.939,45.123
	c-22.375,22.729-41.61,41.432-41.61,41.432s-1.23,5.667-6.873,23.899c-15,51.279-21.12,100.239-15,155.319
	c21.524,139.896,175.491,241.881,308.534,194.328c5.281,0.624,10.563,1.132,15.826,1.512c-48.96,30.6-110.16,36.72-165.24,24.48
	c151.47,55.538,269.604-59.707,306.318-194.524c-0.165,7.705-0.318,15.428-0.318,23.164c0,36.72-18.358,73.438-36.72,104.04
	c-91.8,128.52-275.4,134.64-388.143,27.956c-13.55-10.618-18.384-13.979-18.384-13.979s24.192,24.684,45.104,45.246
	c20.912,20.563,41.445,41.311,41.445,41.311s5.343,0.973,22.289,5.661C195.84,594.9,238.68,607.14,287.64,601.02
	c24.48-6.118,42.84-12.238,67.32-18.358c116.69-47.742,191.917-182.812,146.176-297.665c0.453-6.879,0.704-13.74,0.704-20.576
	c36.721,61.2,48.96,134.64,18.36,195.84c48.96-91.8,18.358-201.96-55.08-269.28c-41.893-33.513-89.519-52.675-140.913-61.438
	c32.687,1.211,65.38,5.52,98.073,18.599c30.6,18.36,55.08,36.72,79.56,61.2c97.92,104.04,67.32,263.16-17.087,358.13
	c-5.422,9.192-5.647,11.685-5.647,11.685l86.549-86.557c0,0-0.691-2.483,0.819-13.219C569.16,448.02,587.52,417.42,587.52,386.82z
	 M422.28,319.494c0,64.217-52.063,116.28-116.28,116.28c-64.223,0-116.28-52.063-116.28-116.28
	c0-64.223,52.057-116.28,116.28-116.28C370.217,203.214,422.28,255.271,422.28,319.494z"/>
</svg>
